<svg xmlns="http://www.w3.org/2000/svg" viewBox="0 0 32 32" fill="none">
  <!-- Background circle -->
  <circle cx="16" cy="16" r="15" fill="#0a1414" stroke="#00ff5e" stroke-width="2"/>
  
  <!-- MMA Glove silhouette -->
  <path d="M8 12c0-2 1.5-3 3.5-3h1c2 0 3.5 1 3.5 3v2c0 1-0.5 2-1.5 2.5l1 4c0.3 1-0.2 2-1.2 2.2l-0.8 0.2c-1 0.2-2-0.3-2.2-1.2l-1-4c-1-0.5-1.5-1.5-1.5-2.5v-2z" fill="#00ff5e"/>
  
  <!-- Martial Arts Belt knot -->
  <rect x="19" y="10" width="8" height="2" rx="1" fill="#00ff5e"/>
  <rect x="19" y="14" width="8" height="2" rx="1" fill="#00ff5e"/>
  <rect x="19" y="18" width="8" height="2" rx="1" fill="#00ff5e"/>
  <circle cx="23" cy="16" r="1.5" fill="#0a1414"/>
  
  <!-- Subtle "S" for SLAMM -->
  <path d="M14 22c-1.5 0-2.5-1-2.5-2.5s1-2.5 2.5-2.5 2.5 1 2.5 2.5-1 2.5-2.5 2.5z" fill="none" stroke="#0a1414" stroke-width="1"/>
</svg>